<svg width="220.000000" height="220.000000" viewBox="0 0 220 220" fill="none" xmlns="http://www.w3.org/2000/svg" xmlns:xlink="http://www.w3.org/1999/xlink">
	<desc>
			Created with Pixso.
	</desc>
	<defs/>
	<path id="Ellipse 21" d="M205.15 165.17C201.4 171.63 197 177.67 192.05 183.21C186.54 189.41 180.47 194.83 174 199.47C165.36 205.67 155.98 210.47 146.21 213.87C139.16 216.32 131.9 218.04 124.55 219.03C123.42 219.18 122.39 218.36 122.26 217.22C122.13 216.09 122.94 215.06 124.08 214.91C150.08 211.43 172.69 198.71 188.97 180.45C206.49 160.84 215.34 136.47 215.83 112.07C215.85 110.92 216.78 110 217.92 110C219.07 110 220 110.92 219.98 112.07C219.82 120.47 218.72 128.63 216.78 136.47C214.25 146.67 210.3 156.31 205.15 165.17Z" fill="#5956E9" fill-opacity="1.000000" fill-rule="evenodd"/>
	<path id="Ellipse 22" d="M165.17 14.84C171.63 18.59 177.67 22.99 183.21 27.94C189.4 33.45 194.83 39.52 199.47 45.99C205.67 54.63 210.47 64.01 213.87 73.78C216.32 80.83 218.04 88.09 219.03 95.44C219.18 96.57 218.36 97.6 217.22 97.73C216.09 97.86 215.06 97.05 214.91 95.91C211.43 69.91 198.71 47.3 180.45 31.02C160.84 13.5 136.47 4.65 112.07 4.16C110.92 4.14 110 3.21 110 2.07C110 0.92 110.92 -0.01 112.07 0.01C120.47 0.17 128.63 1.27 136.47 3.21C146.67 5.74 156.31 9.69 165.17 14.84Z" fill="#5956E9" fill-opacity="1.000000" fill-rule="evenodd"/>
	<path id="Ellipse 23" d="M14.84 54.82C18.59 48.36 22.99 42.32 27.94 36.78C33.45 30.59 39.52 25.16 45.99 20.52C54.63 14.33 64.01 9.52 73.78 6.12C80.83 3.67 88.09 1.95 95.44 0.96C96.57 0.81 97.6 1.63 97.73 2.77C97.86 3.9 97.05 4.93 95.91 5.08C69.91 8.56 47.3 21.28 31.02 39.54C13.5 59.15 4.65 83.52 4.16 107.93C4.14 109.07 3.21 110 2.07 110C0.92 110 -0.01 109.07 0.01 107.92C0.17 99.53 1.27 91.36 3.21 83.52C5.74 73.32 9.69 63.68 14.84 54.82Z" fill="#5956E9" fill-opacity="1.000000" fill-rule="evenodd"/>
	<path id="Ellipse 24" d="M54.82 205.15C48.36 201.4 42.32 197 36.78 192.05C30.59 186.54 25.16 180.47 20.52 174C14.33 165.36 9.52 155.98 6.12 146.21C3.67 139.16 1.95 131.9 0.96 124.55C0.81 123.42 1.63 122.39 2.77 122.26C3.9 122.13 4.93 122.94 5.08 124.08C8.56 150.08 21.28 172.69 39.54 188.97C59.15 206.49 83.52 215.34 107.92 215.83C109.07 215.85 110 216.78 110 217.92C110 219.07 109.07 220 107.92 219.98C99.53 219.82 91.36 218.72 83.52 216.78C73.32 214.25 63.68 210.3 54.82 205.15Z" fill="#5956E9" fill-opacity="1.000000" fill-rule="evenodd"/>
</svg>
