<svg width="50.000000" height="50.000000" viewBox="0 0 50 50" fill="none" xmlns="http://www.w3.org/2000/svg" xmlns:xlink="http://www.w3.org/1999/xlink">
	<desc>
			Created with Pixso.
	</desc>
	<defs>
		<clipPath id="clip42_141">
			<rect id="Icons/vector" width="50.000000" height="50.000000" fill="white" fill-opacity="0"/>
		</clipPath>
	</defs>
	<rect id="Icons/vector" width="50.000000" height="50.000000" fill="#FFFFFF" fill-opacity="0"/>
	<rect id="Icons/vector" width="50.000000" height="50.000000" fill="#FFFFFF" fill-opacity="0"/>
	<g clip-path="url(#clip42_141)">
		<path id="Vector" d="M48.53 0L42.57 0C41.76 0 41.11 0.65 41.11 1.46L41.11 2.92L29.12 2.92C28.51 1.22 26.9 0 25 0C23.09 0 21.48 1.22 20.87 2.92L8.88 2.92L8.88 1.46C8.88 0.65 8.23 0 7.42 0L1.46 0C0.65 0 0 0.65 0 1.46L0 7.32C0 8.13 0.65 8.78 1.46 8.78L7.42 8.78C8.23 8.78 8.88 8.13 8.88 7.32L8.88 5.83L14.9 5.83C9.81 9.01 6.46 14.59 6.06 20.84C4.3 21.41 3.02 23.05 3.02 25C3.02 27.42 4.99 29.39 7.42 29.39C9.84 29.39 11.81 27.42 11.81 25C11.81 23.13 10.63 21.54 8.99 20.9C9.49 13.94 14.35 8.07 21.11 6.39C21.84 7.81 23.3 8.78 25 8.78C26.69 8.78 28.15 7.81 28.88 6.39C35.64 8.07 40.5 13.94 41 20.9C39.36 21.54 38.18 23.13 38.18 25C38.18 27.42 40.15 29.39 42.57 29.39C45 29.39 46.97 27.42 46.97 25C46.97 23.05 45.69 21.41 43.93 20.84C43.53 14.59 40.18 9.03 35.09 5.85L41.11 5.85L41.11 7.32C41.11 8.13 41.76 8.78 42.57 8.78L48.53 8.78C49.34 8.78 50 8.13 50 7.32L50 1.46C50 0.65 49.34 0 48.53 0Z" fill="#FFFFFF" fill-opacity="1.000000" fill-rule="nonzero"/>
		<path id="Vector" d="M34.96 48.18C34.19 45.83 31.99 44.04 29.39 44.04L20.6 44.04C18 44.04 15.8 45.83 15.03 48.18C14.73 49.08 15.5 50 16.45 50L33.54 50C34.49 50 35.26 49.08 34.96 48.18Z" fill="#FFFFFF" fill-opacity="1.000000" fill-rule="nonzero"/>
		<path id="Vector" d="M37.93 30.04L26.46 12.83L26.46 26.73C28.16 27.34 29.39 28.95 29.39 30.85C29.39 33.28 27.42 35.25 25 35.25C22.57 35.25 20.6 33.28 20.6 30.85C20.6 28.95 21.83 27.34 23.53 26.73L23.53 12.83L12.06 30.04C11.67 30.62 11.75 31.4 12.24 31.89C14.93 34.58 16.65 38.04 17.31 41.76C18.33 41.35 19.44 41.11 20.6 41.11L29.39 41.11C30.55 41.11 31.66 41.35 32.68 41.76C33.34 38.04 35.06 34.58 37.75 31.89C38.24 31.4 38.32 30.62 37.93 30.04Z" fill="#FFFFFF" fill-opacity="1.000000" fill-rule="nonzero"/>
		<path id="Vector" d="M25 29.39C24.19 29.39 23.53 30.05 23.53 30.85C23.53 31.66 24.19 32.32 25 32.32C25.8 32.32 26.46 31.66 26.46 30.85C26.46 30.05 25.8 29.39 25 29.39Z" fill="#FFFFFF" fill-opacity="1.000000" fill-rule="nonzero"/>
	</g>
</svg>
