<svg width="29.000000" height="50.000000" viewBox="0 0 29 50" fill="none" xmlns="http://www.w3.org/2000/svg" xmlns:xlink="http://www.w3.org/1999/xlink">
	<desc>
			Created with Pixso.
	</desc>
	<defs/>
	<path id="Vector" d="M24.51 0L3.48 0C1.46 0 -0.16 1.63 -0.16 3.64L-0.16 46.36C-0.16 48.36 1.46 50 3.48 50L24.51 50C26.52 50 28.15 48.36 28.15 46.36L28.15 3.64C28.15 1.63 26.52 0 24.51 0ZM8.8 2.21L19.19 2.21C19.45 2.21 19.67 2.6 19.67 3.08C19.67 3.57 19.45 3.96 19.19 3.96L8.8 3.96C8.54 3.96 8.33 3.57 8.33 3.08C8.33 2.6 8.54 2.21 8.8 2.21ZM14 46.4C12.72 46.4 11.67 45.36 11.67 44.08C11.67 42.79 12.72 41.75 14 41.75C15.27 41.75 16.32 42.79 16.32 44.08C16.32 45.36 15.27 46.4 14 46.4ZM25.43 38.44L2.57 38.44L2.57 6.14L25.43 6.14L25.43 38.44Z" fill="#FFFFFF" fill-opacity="1.000000" fill-rule="nonzero"/>
</svg>
