<svg width="50.000000" height="50.000000" viewBox="0 0 50 50" fill="none" xmlns="http://www.w3.org/2000/svg" xmlns:xlink="http://www.w3.org/1999/xlink">
	<desc>
			Created with Pixso.
	</desc>
	<defs>
		<clipPath id="clip42_154">
			<rect id="Icons/male-telemarketer" width="50.000000" height="50.000000" fill="white" fill-opacity="0"/>
		</clipPath>
	</defs>
	<rect id="Icons/male-telemarketer" width="50.000000" height="50.000000" fill="#FFFFFF" fill-opacity="0"/>
	<rect id="Icons/male-telemarketer" width="50.000000" height="50.000000" fill="#FFFFFF" fill-opacity="0"/>
	<g clip-path="url(#clip42_154)">
		<path id="Vector" d="M15.37 22.27C17.66 27.32 22.56 29.52 24.99 29.52C26.59 29.52 29.26 28.57 31.55 26.48C30.71 26.54 29.82 26.57 28.86 26.57C28.64 26.57 28.4 26.57 28.15 26.57C27.67 26.94 27.07 27.15 26.45 27.15L24.42 27.15C22.88 27.15 21.63 25.9 21.63 24.36C21.63 22.83 22.88 21.58 24.42 21.58L26.45 21.58C27.19 21.58 27.88 21.86 28.39 22.36C28.56 22.36 28.73 22.36 28.89 22.36C31.52 22.36 33.25 22.12 34.39 21.83C34.24 21.47 34.16 21.08 34.16 20.67L34.16 13.61C34.16 12.87 34.43 12.17 34.9 11.63C34.65 9.67 34.2 8.17 33.51 7.07C32.11 4.8 29.4 3.74 24.99 3.74C21.34 3.74 18.81 4.5 17.27 6.06C16.08 7.27 15.39 9 15.07 11.61C15.55 12.15 15.83 12.86 15.83 13.61L15.83 20.67C15.83 21.26 15.66 21.81 15.37 22.27Z" fill="#FFFFFF" fill-opacity="1.000000" fill-rule="nonzero"/>
		<path id="Vector" d="M10.36 22.34L12.8 22.34C13.72 22.34 14.47 21.59 14.47 20.67L14.47 13.61C14.47 12.99 14.14 12.46 13.64 12.17C14.19 6.39 16.42 2.38 25 2.38C29.92 2.38 32.99 3.64 34.67 6.36C35.65 7.93 36.11 9.97 36.33 12.18C35.85 12.47 35.52 13 35.52 13.61L35.52 20.67C35.52 21.46 36.07 22.13 36.82 22.29C35.74 23 33.51 23.72 28.89 23.72C28.52 23.72 28.13 23.71 27.72 23.71C27.48 23.25 27 22.93 26.45 22.93L24.42 22.93C23.63 22.93 22.99 23.57 22.99 24.36C22.99 25.15 23.63 25.79 24.42 25.79L26.45 25.79C26.93 25.79 27.35 25.55 27.61 25.2C28.04 25.21 28.46 25.21 28.86 25.21C34.07 25.21 37.38 24.32 38.72 22.56C38.78 22.49 38.83 22.41 38.88 22.34L39.63 22.34C40.55 22.34 41.3 21.59 41.3 20.67L41.3 13.61C41.3 12.69 40.55 11.94 39.63 11.94L38.71 11.94C38.45 9.28 37.88 7.01 36.7 5.1C34.58 1.67 30.75 0 24.99 0C19.24 0 15.41 1.67 13.29 5.1C12.11 7.01 11.54 9.28 11.28 11.94L10.36 11.94C9.44 11.94 8.69 12.69 8.69 13.61L8.69 20.67C8.69 21.59 9.44 22.34 10.36 22.34Z" fill="#FFFFFF" fill-opacity="1.000000" fill-rule="nonzero"/>
		<path id="Vector" d="M45.15 43.1C44.59 39.66 43.45 35.22 41.16 33.64C39.6 32.56 34.16 29.65 31.83 28.41L31.78 28.38C31.52 28.24 31.19 28.27 30.95 28.46C29.73 29.41 28.4 30.06 26.98 30.37C26.73 30.43 26.53 30.61 26.44 30.85L24.99 34.65L23.55 30.85C23.46 30.61 23.26 30.43 23.01 30.37C21.59 30.06 20.26 29.41 19.04 28.46C18.8 28.27 18.47 28.24 18.21 28.38C15.91 29.61 10.39 32.58 8.83 33.63C6.2 35.41 5.05 41.83 4.84 43.1C4.82 43.23 4.83 43.36 4.88 43.48C4.97 43.74 7.39 50 24.99 50C42.6 50 45.02 43.74 45.11 43.48C45.16 43.36 45.17 43.23 45.15 43.1ZM36.95 39.14L29.98 39.14L29.98 37.68L36.95 37.68L36.95 39.14Z" fill="#FFFFFF" fill-opacity="1.000000" fill-rule="nonzero"/>
	</g>
</svg>
