<svg width="50.000000" height="50.000000" viewBox="0 0 50 50" fill="none" xmlns="http://www.w3.org/2000/svg" xmlns:xlink="http://www.w3.org/1999/xlink">
	<desc>
			Created with Pixso.
	</desc>
	<defs>
		<clipPath id="clip42_132">
			<rect id="Icons/browser" width="50.000000" height="50.000000" fill="white" fill-opacity="0"/>
		</clipPath>
	</defs>
	<rect id="Icons/browser" width="50.000000" height="50.000000" fill="#FFFFFF" fill-opacity="0"/>
	<rect id="Icons/browser" width="50.000000" height="50.000000" fill="#FFFFFF" fill-opacity="0"/>
	<g clip-path="url(#clip42_132)">
		<path id="Vector" d="M22.07 25L23.53 25L23.53 23.53C23.53 22.72 22.87 22.07 22.07 22.07C21.26 22.07 20.6 22.72 20.6 23.53C20.6 24.34 21.26 25 22.07 25Z" fill="#FFFFFF" fill-opacity="1.000000" fill-rule="nonzero"/>
		<path id="Vector" d="M23.53 27.92C23.24 27.92 18.84 27.92 19.14 27.92C18.33 27.92 17.67 28.58 17.67 29.39L17.67 30.85L23.53 30.85L23.53 27.92Z" fill="#FFFFFF" fill-opacity="1.000000" fill-rule="nonzero"/>
		<path id="Vector" d="M29.39 23.53C29.39 22.72 28.73 22.07 27.92 22.07C27.12 22.07 26.46 22.72 26.46 23.53L26.46 25L27.92 25C28.73 25 29.39 24.34 29.39 23.53Z" fill="#FFFFFF" fill-opacity="1.000000" fill-rule="nonzero"/>
		<path id="Vector" d="M23.53 33.78L20.6 33.78L20.6 39.64L29.39 39.64L29.39 33.78L26.46 33.78L26.46 35.25C26.46 36.06 25.8 36.71 25 36.71C24.19 36.71 23.53 36.06 23.53 35.25L23.53 33.78Z" fill="#FFFFFF" fill-opacity="1.000000" fill-rule="nonzero"/>
		<path id="Vector" d="M0 44.04C0 46.46 1.97 48.43 4.39 48.43L45.6 48.43C48.02 48.43 50 46.46 50 44.04L50 16.21L0 16.21L0 44.04ZM14.74 29.39C14.74 27.36 16.13 25.67 17.99 25.16C17.79 24.66 17.67 24.11 17.67 23.53C17.67 21.11 19.64 19.14 22.07 19.14C23.19 19.14 24.22 19.58 25 20.28C25.77 19.58 26.8 19.14 27.92 19.14C30.35 19.14 32.32 21.11 32.32 23.53C32.32 24.11 32.2 24.66 32 25.16C33.86 25.67 35.25 27.36 35.25 29.39L35.25 32.32C35.25 33.13 34.59 33.78 33.78 33.78L32.32 33.78L32.32 41.11C32.32 41.92 31.66 42.57 30.85 42.57L19.14 42.57C18.33 42.57 17.67 41.92 17.67 41.11L17.67 33.78L16.21 33.78C15.4 33.78 14.74 33.13 14.74 32.32L14.74 29.39Z" fill="#FFFFFF" fill-opacity="1.000000" fill-rule="nonzero"/>
		<path id="Vector" d="M32.32 29.39C32.32 28.58 31.66 27.92 30.85 27.92C30.56 27.92 26.17 27.92 26.46 27.92L26.46 30.85L32.32 30.85L32.32 29.39Z" fill="#FFFFFF" fill-opacity="1.000000" fill-rule="nonzero"/>
		<path id="Vector" d="M45.6 1.56L4.39 1.56C1.97 1.56 0 3.53 0 5.95L0 13.28L50 13.28L50 5.95C50 3.53 48.02 1.56 45.6 1.56ZM7.32 10.35C6.51 10.35 5.85 9.69 5.85 8.88C5.85 8.07 6.51 7.42 7.32 7.42C8.13 7.42 8.78 8.07 8.78 8.88C8.78 9.69 8.13 10.35 7.32 10.35ZM13.27 10.35C12.46 10.35 11.81 9.69 11.81 8.88C11.81 8.07 12.46 7.42 13.27 7.42C14.08 7.42 14.74 8.07 14.74 8.88C14.74 9.69 14.08 10.35 13.27 10.35ZM19.13 10.35C18.32 10.35 17.67 9.69 17.67 8.88C17.67 8.07 18.32 7.42 19.13 7.42C19.94 7.42 20.6 8.07 20.6 8.88C20.6 9.69 19.94 10.35 19.13 10.35ZM42.67 10.35L33.78 10.35C32.97 10.35 32.32 9.69 32.32 8.88C32.32 8.07 32.97 7.42 33.78 7.42L42.67 7.42C43.48 7.42 44.14 8.07 44.14 8.88C44.14 9.69 43.48 10.35 42.67 10.35Z" fill="#FFFFFF" fill-opacity="1.000000" fill-rule="nonzero"/>
	</g>
</svg>
