<svg width="35.000000" height="35.000000" viewBox="0 0 35 35" fill="none" xmlns="http://www.w3.org/2000/svg" xmlns:xlink="http://www.w3.org/1999/xlink">
	<desc>
			Created with Pixso.
	</desc>
	<defs>
		<clipPath id="clip135_746">
			<rect id="Icons/fill/system/download-2-fill" width="35.000000" height="35.000000" fill="white" fill-opacity="0"/>
		</clipPath>
	</defs>
	<rect id="Icons/fill/system/download-2-fill" width="35.000000" height="35.000000" fill="#FFFFFF" fill-opacity="0"/>
	<rect id="Icons/fill/system/download-2-fill" width="35.000000" height="35.000000" fill="#FFFFFF" fill-opacity="0"/>
	<g clip-path="url(#clip135_746)">
		<path id="Vector" d="M5.83 27.7L29.16 27.7L29.16 17.5L32.08 17.5L32.08 29.16C32.08 29.55 31.92 29.92 31.65 30.19C31.38 30.47 31.01 30.62 30.62 30.62L4.37 30.62C3.98 30.62 3.61 30.47 3.34 30.19C3.07 29.92 2.91 29.55 2.91 29.16L2.91 17.5L5.83 17.5L5.83 27.7ZM20.41 13.12L27.7 13.12L17.5 23.33L7.29 13.12L14.58 13.12L14.58 4.37L20.41 4.37L20.41 13.12Z" fill="#FFFFFF" fill-opacity="1.000000" fill-rule="nonzero"/>
	</g>
</svg>
