<svg width="18.000000" height="18.000000" viewBox="0 0 18 18" fill="none" xmlns="http://www.w3.org/2000/svg" xmlns:xlink="http://www.w3.org/1999/xlink">
	<desc>
			Created with Pixso.
	</desc>
	<defs>
		<clipPath id="clip12_241">
			<rect id="Icons/instagram-fill" width="18.000000" height="18.000000" fill="white" fill-opacity="0"/>
		</clipPath>
	</defs>
	<rect id="Icons/fill/instagram-fill" width="18.000000" height="18.000000" fill="#FFFFFF" fill-opacity="0"/>
	<rect id="Icons/instagram-fill" width="18.000000" height="18.000000" fill="#FFFFFF" fill-opacity="0"/>
	<g clip-path="url(#clip12_241)">
		<path id="Vector" d="M9 1.5C11.03 1.5 11.29 1.5 12.09 1.54C12.89 1.58 13.43 1.7 13.91 1.89C14.4 2.08 14.82 2.34 15.24 2.75C15.62 3.13 15.91 3.58 16.1 4.08C16.29 4.56 16.41 5.1 16.45 5.9C16.49 6.7 16.5 6.96 16.5 9C16.5 11.03 16.49 11.29 16.45 12.09C16.41 12.89 16.29 13.43 16.1 13.91C15.91 14.41 15.62 14.86 15.24 15.24C14.86 15.62 14.41 15.91 13.91 16.1C13.43 16.29 12.89 16.41 12.09 16.45C11.29 16.49 11.03 16.5 9 16.5C6.96 16.5 6.7 16.49 5.9 16.45C5.1 16.41 4.56 16.29 4.08 16.1C3.58 15.91 3.13 15.62 2.75 15.24C2.37 14.86 2.08 14.41 1.89 13.91C1.7 13.43 1.58 12.89 1.54 12.09C1.5 11.29 1.5 11.03 1.5 9C1.5 6.96 1.5 6.7 1.54 5.9C1.58 5.1 1.7 4.56 1.89 4.08C2.08 3.58 2.37 3.13 2.75 2.75C3.13 2.37 3.58 2.08 4.08 1.89C4.56 1.7 5.1 1.58 5.9 1.54C6.7 1.5 6.96 1.5 9 1.5ZM9 5.25C8 5.25 7.05 5.64 6.34 6.34C5.64 7.05 5.25 8 5.25 9C5.25 9.99 5.64 10.94 6.34 11.65C7.05 12.35 8 12.75 9 12.75C9.99 12.75 10.94 12.35 11.65 11.65C12.35 10.94 12.75 9.99 12.75 9C12.75 8 12.35 7.05 11.65 6.34C10.94 5.64 9.99 5.25 9 5.25ZM13.87 5.06C13.87 4.81 13.77 4.57 13.6 4.39C13.42 4.22 13.18 4.12 12.93 4.12C12.68 4.12 12.45 4.22 12.27 4.39C12.09 4.57 12 4.81 12 5.06C12 5.31 12.09 5.54 12.27 5.72C12.45 5.9 12.68 6 12.93 6C13.18 6 13.42 5.9 13.6 5.72C13.77 5.54 13.87 5.31 13.87 5.06ZM9 6.75C9.59 6.75 10.16 6.98 10.59 7.4C11.01 7.83 11.25 8.4 11.25 9C11.25 9.59 11.01 10.16 10.59 10.59C10.16 11.01 9.59 11.25 9 11.25C8.4 11.25 7.83 11.01 7.4 10.59C6.98 10.16 6.75 9.59 6.75 9C6.75 8.4 6.98 7.83 7.4 7.4C7.83 6.98 8.4 6.75 9 6.75Z" fill="#FFFFFF" fill-opacity="1.000000" fill-rule="nonzero"/>
	</g>
</svg>
