<svg width="35.000000" height="35.000000" viewBox="0 0 35 35" fill="none" xmlns="http://www.w3.org/2000/svg" xmlns:xlink="http://www.w3.org/1999/xlink">
	<desc>
			Created with Pixso.
	</desc>
	<defs>
		<clipPath id="clip135_742">
			<rect id="Icons/fill/system/thumb-up-fill" width="35.000000" height="35.000000" fill="white" fill-opacity="0"/>
		</clipPath>
	</defs>
	<rect id="Icons/fill/system/thumb-up-fill" width="35.000000" height="35.000000" fill="#FFFFFF" fill-opacity="0"/>
	<g clip-path="url(#clip135_742)">
		<path id="Vector" d="M2.91 13.12L7.29 13.12L7.29 30.62L2.91 30.62C2.52 30.62 2.15 30.47 1.88 30.19C1.61 29.92 1.45 29.55 1.45 29.16L1.45 14.58C1.45 14.19 1.61 13.82 1.88 13.55C2.15 13.27 2.52 13.12 2.91 13.12ZM10.63 11.23L19.96 1.9C20.09 1.78 20.25 1.7 20.43 1.69C20.6 1.68 20.78 1.73 20.92 1.83L22.16 2.77C22.51 3.03 22.77 3.38 22.91 3.79C23.06 4.2 23.07 4.64 22.97 5.06L21.29 11.66L30.62 11.66C31.39 11.66 32.14 11.97 32.68 12.52C33.23 13.06 33.54 13.81 33.54 14.58L33.54 17.65C33.54 18.03 33.46 18.41 33.32 18.76L28.8 29.72C28.69 29.98 28.51 30.21 28.27 30.37C28.03 30.53 27.74 30.62 27.46 30.62L11.66 30.62C11.27 30.62 10.9 30.47 10.63 30.19C10.36 29.92 10.2 29.55 10.2 29.16L10.2 12.27C10.2 11.88 10.36 11.51 10.63 11.23Z" fill="#FFFFFF" fill-opacity="1.000000" fill-rule="nonzero"/>
	</g>
</svg>
