<svg width="24.000000" height="24.000000" viewBox="0 0 24 24" fill="none" xmlns="http://www.w3.org/2000/svg" xmlns:xlink="http://www.w3.org/1999/xlink">
	<desc>
			Created with Pixso.
	</desc>
	<defs/>
	<path id="Vector" d="M3 13L9 13L9 11L3 11L3 1.84C3 1.75 3.02 1.67 3.06 1.59C3.1 1.52 3.17 1.45 3.24 1.41C3.32 1.37 3.4 1.34 3.49 1.34C3.57 1.34 3.66 1.36 3.74 1.4L22.2 11.56C22.28 11.6 22.34 11.66 22.39 11.74C22.43 11.82 22.46 11.91 22.46 12C22.46 12.08 22.43 12.17 22.39 12.25C22.34 12.33 22.28 12.39 22.2 12.43L3.74 22.59C3.66 22.63 3.57 22.65 3.49 22.65C3.4 22.65 3.32 22.62 3.24 22.58C3.17 22.54 3.1 22.47 3.06 22.4C3.02 22.32 3 22.24 3 22.15L3 13Z" fill="#FFFFFF" fill-opacity="1.000000" fill-rule="nonzero"/>
</svg>
