<svg width="18.000000" height="18.000000" viewBox="0 0 18 18" fill="none" xmlns="http://www.w3.org/2000/svg" xmlns:xlink="http://www.w3.org/1999/xlink">
	<desc>
			Created with Pixso.
	</desc>
	<defs>
		<clipPath id="clip12_209">
			<rect id="Icons/phone-fill" width="18.000000" height="18.000000" fill="white" fill-opacity="0"/>
		</clipPath>
	</defs>
	<rect id="Icons/fill/phone-fill" width="18.000000" height="18.000000" fill="#FFFFFF" fill-opacity="0"/>
	<rect id="Icons/fill/phone-fill" width="18.000000" height="18.000000" fill="#FFFFFF" fill-opacity="0"/>
	<rect id="Icons/phone-fill" width="18.000000" height="18.000000" fill="#FFFFFF" fill-opacity="0"/>
	<g clip-path="url(#clip12_209)">
		<path id="Vector" d="M15.75 12.31L15.75 14.96C15.75 15.15 15.67 15.33 15.54 15.47C15.41 15.61 15.24 15.7 15.05 15.71C14.72 15.73 14.45 15.75 14.25 15.75C7.62 15.75 2.25 10.37 2.25 3.75C2.25 3.54 2.26 3.27 2.28 2.94C2.29 2.75 2.38 2.58 2.52 2.45C2.66 2.32 2.84 2.24 3.03 2.25L5.68 2.25C5.77 2.24 5.86 2.28 5.93 2.34C6 2.4 6.04 2.49 6.05 2.58C6.07 2.76 6.09 2.89 6.1 3C6.25 4.04 6.56 5.05 7.01 6C7.08 6.15 7.03 6.33 6.9 6.42L5.28 7.58C6.27 9.88 8.11 11.72 10.41 12.71L11.57 11.1C11.61 11.03 11.68 10.98 11.76 10.96C11.84 10.94 11.92 10.95 12 10.98C12.95 11.44 13.96 11.74 15 11.89C15.1 11.9 15.24 11.92 15.41 11.94C15.5 11.95 15.59 11.99 15.65 12.06C15.71 12.13 15.75 12.22 15.75 12.31L15.75 12.31Z" fill="#FFFFFF" fill-opacity="1.000000" fill-rule="nonzero"/>
	</g>
</svg>
