<svg width="18.000000" height="18.000000" viewBox="0 0 18 18" fill="none" xmlns="http://www.w3.org/2000/svg" xmlns:xlink="http://www.w3.org/1999/xlink">
	<desc>
			Created with Pixso.
	</desc>
	<defs>
		<clipPath id="clip12_257">
			<rect id="Icons/twitter-fill" width="18.000000" height="18.000000" fill="white" fill-opacity="0"/>
		</clipPath>
	</defs>
	<rect id="Icons/fill/twitter-fill" width="18.000000" height="18.000000" fill="#FFFFFF" fill-opacity="0"/>
	<rect id="Icons/twitter-fill" width="18.000000" height="18.000000" fill="#FFFFFF" fill-opacity="0"/>
	<g clip-path="url(#clip12_257)">
		<path id="Vector" d="M16.62 4.24C16.04 4.49 15.44 4.66 14.82 4.73C15.47 4.34 15.96 3.72 16.2 3C15.58 3.36 14.91 3.62 14.2 3.76C13.73 3.25 13.11 2.92 12.42 2.8C11.74 2.69 11.04 2.81 10.43 3.13C9.82 3.46 9.34 3.98 9.05 4.61C8.77 5.24 8.7 5.94 8.86 6.62C7.61 6.55 6.39 6.23 5.28 5.67C4.16 5.1 3.18 4.31 2.39 3.34C2.11 3.82 1.97 4.36 1.97 4.92C1.97 6 2.52 6.96 3.36 7.53C2.87 7.51 2.38 7.38 1.94 7.14L1.94 7.17C1.94 7.9 2.19 8.6 2.65 9.16C3.11 9.72 3.75 10.11 4.46 10.25C4 10.38 3.51 10.39 3.04 10.3C3.24 10.93 3.63 11.47 4.16 11.86C4.68 12.25 5.32 12.47 5.97 12.48C5.32 12.99 4.58 13.37 3.78 13.59C2.98 13.82 2.15 13.88 1.33 13.78C2.76 14.7 4.43 15.19 6.14 15.19C11.91 15.19 15.06 10.41 15.06 6.27C15.06 6.13 15.06 6 15.05 5.86C15.67 5.42 16.2 4.87 16.62 4.24L16.62 4.24Z" fill="#FFFFFF" fill-opacity="1.000000" fill-rule="nonzero"/>
	</g>
</svg>
