<svg width="18.000000" height="18.000000" viewBox="0 0 18 18" fill="none" xmlns="http://www.w3.org/2000/svg" xmlns:xlink="http://www.w3.org/1999/xlink">
	<desc>
			Created with Pixso.
	</desc>
	<defs>
		<clipPath id="clip12_273">
			<rect id="Icons/youtube-fill" width="18.000000" height="18.000000" fill="white" fill-opacity="0"/>
		</clipPath>
	</defs>
	<rect id="Icons/fill/youtube-fill" width="18.000000" height="18.000000" fill="#FFFFFF" fill-opacity="0"/>
	<rect id="Icons/fill/youtube-fill" width="18.000000" height="18.000000" fill="#FFFFFF" fill-opacity="0"/>
	<rect id="Icons/youtube-fill" width="18.000000" height="18.000000" fill="#FFFFFF" fill-opacity="0"/>
	<g clip-path="url(#clip12_273)">
		<path id="Vector" d="M16.15 4.87C16.5 6.2 16.5 9 16.5 9C16.5 9 16.5 11.79 16.15 13.12C15.96 13.86 15.4 14.44 14.7 14.64C13.42 15 9 15 9 15C9 15 4.58 15 3.29 14.64C2.58 14.44 2.03 13.86 1.84 13.12C1.5 11.79 1.5 9 1.5 9C1.5 9 1.5 6.2 1.84 4.87C2.03 4.13 2.59 3.55 3.29 3.35C4.58 3 9 3 9 3C9 3 13.42 3 14.7 3.35C15.41 3.55 15.96 4.13 16.15 4.87ZM7.5 11.62L12 9L7.5 6.37L7.5 11.62Z" fill="#FFFFFF" fill-opacity="1.000000" fill-rule="nonzero"/>
	</g>
</svg>
